# xmcd
#
# Track frame offsets:
#	150
#	21933
#	47795
#	110143
#	140961
#	216921
#	248985
#
# Disc length: 3755 seconds
#
# Revision: 0
# Processed by: cddbd v1.5.2PL0 Copyright (c) Steve Scherf et al.
# Submitted via: audiograbber 1.83.01
#
DISCID=700ea907
DTITLE=Mark Knopfler - Live in Milano 2013
DYEAR=2013
DGENRE=Folk-Rock
TTITLE0=Gator Blood
TTITLE1=Postcards From Paraguay
TTITLE2=Marbletown
TTITLE3=Speedway at Nazareth
TTITLE4=Telegraph Road
TTITLE5=So Far Away
TTITLE6=Piper To The End
EXTD=
EXTT0=
EXTT1=
EXTT2=
EXTT3=
EXTT4=
EXTT5=
EXTT6=
PLAYORDER=
